<svg xmlns="http://www.w3.org/2000/svg" viewBox="0 0 240 240" role="img" aria-labelledby="title desc">
  <title id="title">CLAWPTCHA logo mark for dark mode</title>
  <desc id="desc">A block C made from outlined challenge tiles with code-diff and pull-request symbols.</desc>
  <defs>
    <style>
      .ink {
        fill: #101816;
        stroke: #edf6ec;
        stroke-width: 3;
      }
      .brand {
        fill: #ff6f4d;
        stroke: #edf6ec;
        stroke-width: 3;
      }
      .tile {
        rx: 16;
        vector-effect: non-scaling-stroke;
      }
      .symbol {
        fill: none;
        stroke: #d8f35f;
        stroke-width: 8;
        stroke-linecap: round;
        stroke-linejoin: round;
      }
      .dot {
        fill: #101816;
        stroke: #d8f35f;
        stroke-width: 5;
      }
    </style>
  </defs>

  <g>
    <rect class="tile ink" x="24" y="24" width="56" height="56" rx="16" />
    <rect class="tile ink" x="92" y="24" width="56" height="56" rx="16" />
    <rect class="tile ink" x="160" y="24" width="56" height="56" rx="16" />
    <rect class="tile ink" x="24" y="92" width="56" height="56" rx="16" />
    <rect class="tile brand" x="24" y="160" width="56" height="56" rx="16" />
    <rect class="tile ink" x="92" y="160" width="56" height="56" rx="16" />
    <rect class="tile ink" x="160" y="160" width="56" height="56" rx="16" />

    <path class="symbol" d="M43 52h18" />
    <path class="symbol" d="M188 43v18M179 52h18" />
    <path class="symbol" d="M180 188h14m0 0 11-10m-11 10 11 10" />
    <circle class="dot" cx="180" cy="188" r="4" />
    <circle class="dot" cx="205" cy="178" r="4" />
    <circle class="dot" cx="205" cy="198" r="4" />
  </g>
</svg>
