<svg xmlns="http://www.w3.org/2000/svg" viewBox="0 0 240 240" role="img" aria-labelledby="title desc">
  <title id="title">VOUCHA logo mark</title>
  <desc id="desc">A block V made from policy tiles above the official Git mark.</desc>
  <defs>
    <style>
      .ink {
        fill: #101816;
        stroke: transparent;
        stroke-width: 3;
        vector-effect: non-scaling-stroke;
      }
      @media (prefers-color-scheme: dark) {
        .ink {
          stroke: #edf6ec;
        }
      }
    </style>
  </defs>
  <g>
    <rect class="ink" x="26" y="24" width="54" height="54" rx="16" />
    <rect class="ink" x="160" y="24" width="54" height="54" rx="16" />
    <rect class="ink" x="54" y="94" width="54" height="54" rx="16" />
    <rect class="ink" x="132" y="94" width="54" height="54" rx="16" />
    <svg x="93" y="164" width="54" height="54" viewBox="0 0 78 78" aria-hidden="true">
      <path fill="#f03c2e" transform="translate(10 10) rotate(-45 29 29)" d="M5,58c-2.76142,0 -5,-2.23858 -5,-5v-48c0,-2.76142 2.23858,-5 5,-5h33v12.54404c-2.06553,0.94801 -3.5,3.03446 -3.5,5.45596c0,0.73514 0.13221,1.43941 0.37415,2.09031l-15.28384,15.28384c-0.6509,-0.24194 -1.35517,-0.37415 -2.09031,-0.37415c-3.31371,0 -6,2.68629 -6,6c0,3.31371 2.68629,6 6,6c3.31371,0 6,-2.68629 6,-6c0,-0.73514 -0.13221,-1.43941 -0.37415,-2.09031l14.87415,-14.87415l0,11.50851c-2.06553,0.94801 -3.5,3.03446 -3.5,5.45596c0,3.31371 2.68629,6 6,6c3.31371,0 6,-2.68629 6,-6c0,-2.42149 -1.43447,-4.50795 -3.5,-5.45596l0,-12.08808c2.06553,-0.94801 3.5,-3.03446 3.5,-5.45596c0,-2.42149 -1.43447,-4.50795 -3.5,-5.45596l0,-12.54404h10c2.76142,0 5,2.23858 5,5v48c0,2.76142 -2.23858,5 -5,5z" />
    </svg>
  </g>
</svg>
